<?xml version="1.0" encoding="utf-8"?>
<svg xmlns="http://www.w3.org/2000/svg" viewBox="203.5656 195.3785 200.6253 45.7865" width="200.625px" height="45.7865px" preserveAspectRatio="none"><g id="object-3" transform="matrix(0.9999999999999999, 0, 0, 0.9999999999999999, 63.69590288070461, 44.145255420545716)"><path d="M 204.084 196.985 C 201.543 196.985 199.374 196.502 197.577 195.537 C 195.78 194.572 194.354 193.195 193.305 191.403 L 191.202 196.971 L 183.422 196.971 L 183.389 188.666 L 187.149 188.666 L 187.149 152.964 L 194.73 152.964 L 194.73 169.858 L 194.932 169.858 C 195.846 168.204 197.135 166.939 198.796 166.061 C 200.457 165.184 202.44 164.745 204.749 164.745 C 207.662 164.745 210.154 165.406 212.223 166.733 C 214.293 168.059 215.877 169.925 216.977 172.338 C 218.08 174.751 218.631 177.593 218.631 180.863 C 218.631 184.1 218.073 186.934 216.953 189.364 C 215.834 191.791 214.19 193.667 212.02 194.993 C 209.851 196.32 207.204 196.985 204.084 196.985 M 202.712 190.319 C 205.46 190.319 207.536 189.482 208.944 187.812 C 210.35 186.141 211.054 183.826 211.054 180.863 C 211.054 177.903 210.35 175.585 208.944 173.914 C 207.536 172.244 205.46 171.407 202.712 171.407 C 200.304 171.407 198.374 172.105 196.916 173.503 C 195.457 174.896 194.73 176.783 194.73 179.159 L 194.73 182.567 C 194.73 184.947 195.457 186.833 196.916 188.227 C 198.374 189.621 200.304 190.319 202.712 190.319 M 220.395 196.958 L 220.362 152.964 L 227.939 152.964 L 227.972 196.958 L 220.395 196.958" style="fill: rgb(30, 41, 59); text-wrap-mode: nowrap;" id="object-0"/><path d="M 245.841 196.985 C 242.552 196.985 239.695 196.321 237.27 194.993 C 234.845 193.668 232.964 191.8 231.626 189.388 C 230.287 186.978 229.617 184.137 229.617 180.863 C 229.617 177.556 230.287 174.697 231.626 172.288 C 232.964 169.876 234.854 168.015 237.297 166.706 C 239.737 165.399 242.585 164.745 245.841 164.745 C 249.163 164.745 252.019 165.399 254.408 166.706 C 256.8 168.015 258.657 169.876 259.979 172.288 C 261.301 174.697 261.962 177.556 261.962 180.863 C 261.962 184.137 261.301 186.987 259.979 189.415 C 258.657 191.842 256.792 193.711 254.385 195.02 C 251.978 196.33 249.13 196.985 245.841 196.985 Z M 245.841 190.265 C 248.554 190.265 250.655 189.431 252.146 187.761 C 253.638 186.09 254.385 183.79 254.385 180.863 C 254.385 177.902 253.638 175.595 252.146 173.941 C 250.655 172.288 248.554 171.461 245.841 171.461 C 243.095 171.461 240.966 172.288 239.456 173.941 C 237.948 175.595 237.194 177.885 237.194 180.812 C 237.194 183.773 237.948 186.09 239.456 187.761 C 240.966 189.431 243.095 190.265 245.841 190.265 Z" style="fill: rgb(30, 41, 59); text-wrap-mode: nowrap;" id="object-1"/><path d="M 270.656 196.985 C 267.367 196.985 264.51 196.32 262.085 194.993 C 259.663 193.667 257.78 191.801 256.441 189.388 C 255.102 186.978 254.431 184.137 254.431 180.863 C 254.431 177.556 255.102 174.697 256.441 172.288 C 257.78 169.875 259.67 168.015 262.112 166.706 C 264.553 165.4 267.4 164.745 270.656 164.745 C 273.977 164.745 276.834 165.4 279.226 166.706 C 281.615 168.015 283.472 169.875 284.794 172.288 C 286.116 174.697 286.777 177.556 286.777 180.863 C 286.777 184.137 286.116 186.988 284.794 189.415 C 283.472 191.841 281.608 193.711 279.2 195.02 C 276.791 196.33 273.944 196.985 270.656 196.985 Z M 270.656 190.265 C 273.37 190.265 275.469 189.432 276.961 187.761 C 278.452 186.091 279.2 183.789 279.2 180.863 C 279.2 177.903 278.452 175.595 276.961 173.941 C 275.469 172.288 273.37 171.461 270.656 171.461 C 267.908 171.461 265.782 172.288 264.274 173.941 C 262.763 175.595 262.009 177.887 262.009 180.812 C 262.009 183.772 262.763 186.091 264.274 187.761 C 265.782 189.432 267.908 190.265 270.656 190.265 Z M 290.195 196.958 L 290.162 173.061 L 286.401 173.061 L 286.401 165.363 L 294.181 165.363 L 296.47 170.324 C 297.487 168.565 298.852 167.205 300.563 166.243 C 302.274 165.278 304.386 164.796 306.894 164.796 C 309.303 164.796 311.369 165.251 313.1 166.166 C 314.83 167.077 316.219 168.427 317.269 170.219 L 317.421 170.219 C 319.694 166.605 323.185 164.796 327.899 164.796 C 331.799 164.796 334.868 165.94 337.104 168.231 C 339.343 170.523 340.462 173.631 340.462 177.556 L 340.495 196.958 L 332.915 196.958 L 332.882 178.953 C 332.882 174.063 330.576 171.616 325.965 171.616 C 321.391 171.616 319.102 174.063 319.102 178.953 L 319.136 196.958 L 311.555 196.958 L 311.522 178.953 C 311.522 174.063 309.2 171.616 304.556 171.616 C 302.32 171.616 300.623 172.227 299.47 173.449 C 298.317 174.674 297.742 176.506 297.742 178.953 L 297.776 196.958 L 290.195 196.958 Z" style="fill: rgb(30, 41, 59); text-wrap-mode: nowrap;" id="object-2"/><g id="Layer_1" transform="matrix(0.202442, 0, 0, 0.204678, -591.478324, 77.327536)" style=""><path style="fill-rule: evenodd; clip-rule: evenodd; stroke-width: 1; fill: rgb(148, 163, 184);" d="M 3707.45 371.463 C 3679.34 388.233 3659.92 418.033 3657.52 452.523 C 3677.83 469.943 3694 492.043 3704.35 517.163 C 3705.33 514.783 3706.36 512.433 3707.45 510.113 C 3708.53 512.433 3709.56 514.783 3710.54 517.163 C 3720.89 492.043 3737.06 469.943 3757.38 452.523 C 3754.97 418.033 3735.55 388.233 3707.45 371.463"/><path style="stroke-width: 1; fill: rgb(30, 41, 59);" d="M 3664.89 401.273 C 3674.34 385.933 3687.4 373.043 3702.87 363.813 L 3707.45 361.083 L 3712.02 363.813 C 3727.5 373.043 3740.55 385.933 3750 401.273 C 3759.2 416.213 3764.99 433.463 3766.28 451.933 L 3766.59 456.373 L 3763.17 459.303 C 3753.52 467.573 3744.84 476.993 3737.33 487.353 C 3729.89 497.623 3723.64 508.753 3718.78 520.543 L 3710.56 540.523 L 3707.45 533.003 L 3704.34 540.533 L 3696.11 520.543 C 3691.25 508.753 3685 497.623 3677.56 487.353 C 3670.05 476.993 3661.37 467.573 3651.72 459.303 L 3648.3 456.373 L 3648.61 451.933 C 3649.9 433.463 3655.69 416.213 3664.89 401.273 M 3707.45 382.013 C 3696.41 389.503 3687.04 399.263 3680.04 410.633 C 3673.06 421.973 3668.42 434.933 3666.82 448.833 C 3676.18 457.283 3684.63 466.683 3692.01 476.873 C 3696.44 482.983 3700.49 489.383 3704.14 496.063 L 3707.45 488.953 L 3710.76 496.063 C 3714.41 489.383 3718.46 482.983 3722.88 476.883 C 3730.26 466.693 3738.72 457.283 3748.08 448.833 C 3746.47 434.933 3741.84 421.973 3734.85 410.633 C 3727.85 399.263 3718.49 389.503 3707.45 382.013 Z"/><g><path style="fill-rule: evenodd; clip-rule: evenodd; stroke-width: 1; fill: rgb(203, 213, 225);" d="M 3760.03 403.383 C 3737.01 421.443 3718.75 445.293 3707.45 472.743 C 3715.69 492.753 3720.24 514.683 3720.24 537.663 C 3720.24 550.643 3718.79 563.273 3716.05 575.413 C 3759.28 571.063 3793.32 534.303 3793.32 489.973 L 3793.32 382.943 C 3781.42 388.493 3770.26 395.363 3760.03 403.383"/><path style="fill-rule: evenodd; clip-rule: evenodd; stroke-width: 1; fill: rgb(203, 213, 225);" d="M 3707.45 472.743 C 3697.1 447.623 3680.93 425.513 3660.62 408.103 C 3648.88 398.043 3635.75 389.553 3621.57 382.943 L 3621.57 489.973 C 3621.57 534.303 3655.61 571.063 3698.85 575.413 C 3701.68 575.703 3704.54 575.843 3707.45 575.843 C 3710.35 575.843 3713.22 575.703 3716.05 575.413 C 3718.79 563.273 3720.24 550.643 3720.24 537.663 C 3720.24 514.683 3715.69 492.753 3707.45 472.743"/></g><path style="stroke-width: 1; fill: rgb(30, 41, 59);" d="M 3722.14 429.333 C 3731.53 416.943 3742.42 405.863 3754.52 396.363 C 3759.87 392.163 3765.53 388.233 3771.46 384.593 C 3777.37 380.963 3783.41 377.703 3789.55 374.853 L 3802.26 368.933 L 3802.26 382.943 L 3802.26 489.973 C 3802.26 514.293 3792.95 536.573 3777.7 553.423 C 3762.33 570.423 3740.91 581.873 3716.92 584.283 L 3707.35 573.463 C 3708.65 567.723 3709.65 561.803 3710.32 555.723 C 3710.97 549.893 3711.3 543.863 3711.3 537.663 C 3711.3 526.883 3710.25 516.363 3708.25 506.223 C 3706.19 495.733 3703.14 485.673 3699.21 476.123 L 3697.81 472.743 L 3699.21 469.353 C 3705.12 455.003 3712.86 441.563 3722.14 429.333 M 3765.55 410.403 C 3754.52 419.053 3744.69 429.033 3736.31 440.083 C 3728.69 450.123 3722.22 461.113 3717.08 472.843 C 3720.83 482.503 3723.76 492.513 3725.78 502.793 C 3728.01 514.103 3729.18 525.763 3729.18 537.663 C 3729.18 544.333 3728.8 551.013 3728.06 557.673 C 3727.81 559.903 3727.52 562.133 3727.19 564.353 C 3741.75 560.463 3754.66 552.383 3764.51 541.483 C 3776.85 527.843 3784.39 509.753 3784.39 489.973 L 3784.39 397.653 C 3783.16 398.353 3781.95 399.083 3780.75 399.813 C 3775.53 403.013 3770.46 406.553 3765.55 410.403 Z"/><path style="stroke-width: 1; fill: rgb(30, 41, 59);" d="M 3695.11 432.463 C 3703.32 443.783 3710.25 456.153 3715.69 469.353 C 3720.1 480.083 3723.51 491.273 3725.78 502.793 C 3728.01 514.103 3729.18 525.763 3729.18 537.663 C 3729.18 544.333 3728.79 551.013 3728.06 557.673 C 3727.32 564.303 3726.21 570.873 3724.74 577.373 L 3723.33 583.633 L 3716.92 584.283 C 3715.35 584.443 3713.77 584.563 3712.19 584.643 C 3710.29 584.733 3708.72 584.783 3707.45 584.783 C 3706.18 584.783 3704.6 584.733 3702.71 584.643 C 3701.13 584.563 3699.55 584.443 3697.97 584.283 C 3673.98 581.873 3652.56 570.423 3637.19 553.423 C 3621.94 536.573 3612.63 514.293 3612.63 489.973 L 3612.63 382.943 L 3612.63 368.933 L 3625.34 374.843 C 3632.7 378.273 3639.86 382.233 3646.75 386.673 C 3653.63 391.103 3660.2 396.003 3666.41 401.333 C 3677.17 410.563 3686.82 421.013 3695.11 432.463 M 3699.21 476.123 C 3694.35 464.333 3688.1 453.203 3680.66 442.933 C 3673.15 432.573 3664.47 423.153 3654.82 414.883 C 3649.25 410.103 3643.34 405.693 3637.12 401.683 C 3634.96 400.293 3632.75 398.953 3630.51 397.653 L 3630.51 489.973 C 3630.51 509.753 3638.05 527.843 3650.38 541.483 C 3662.87 555.293 3680.26 564.593 3699.72 566.543 C 3700.98 566.673 3702.25 566.773 3703.54 566.833 C 3704.51 566.883 3705.82 566.913 3707.45 566.913 L 3708.69 566.903 C 3709.35 563.243 3709.9 559.513 3710.32 555.723 C 3710.97 549.893 3711.3 543.863 3711.3 537.663 C 3711.3 526.883 3710.25 516.363 3708.25 506.223 C 3706.19 495.733 3703.14 485.663 3699.21 476.123 Z"/></g></g></svg>